<?xml version="1.0" encoding="UTF-8"?>
<!DOCTYPE svg PUBLIC "-//W3C//DTD SVG 1.1//EN" "http://www.w3.org/Graphics/SVG/1.1/DTD/svg11.dtd">
<!-- Creator: CorelDRAW -->
<svg xmlns="http://www.w3.org/2000/svg" xml:space="preserve" width="945px" height="437px" version="1.1" style="shape-rendering:geometricPrecision; text-rendering:geometricPrecision; image-rendering:optimizeQuality; fill-rule:evenodd; clip-rule:evenodd"
viewBox="0 0 945 437.06"
 xmlns:xlink="http://www.w3.org/1999/xlink"
 xmlns:xodm="http://www.corel.com/coreldraw/odm/2003">
 <defs>
  <style type="text/css">
   <![CDATA[
    .fil9 {fill:#727271}
    .fil2 {fill:#2B2A29}
    .fil5 {fill:#F29214}
    .fil0 {fill:#DD1F40}
    .fil3 {fill:#F3D426}
    .fil4 {fill:#A89526}
    .fil1 {fill:#A35D2C}
    .fil6 {fill:#54C1DC}
    .fil8 {fill:#1E6264}
    .fil7 {fill:#008CA6}
    .fil10 {fill:#2B2A29;fill-rule:nonzero}
   ]]>
  </style>
 </defs>
 <g id="Capa_x0020_1">
  <metadata id="CorelCorpID_0Corel-Layer"/>
  <path class="fil0" d="M408.8 163.42c12.31,-5.07 18.43,-16.93 13.67,-26.49 -4.76,-9.56 -18.59,-13.21 -30.9,-8.14 -12.31,5.07 -18.43,16.93 -13.67,26.49 4.76,9.56 18.6,13.21 30.9,8.14z"/>
  <g id="_3173905908112">
   <path class="fil1" d="M779.5 224.26l3 -0.05 -1.38 21.67 -3.01 0 1.39 -21.62zm34.01 7.18l2.66 1.4 -8.29 18.91 -2.69 -1.39 8.32 -18.92z"/>
   <path class="fil2" d="M810.01 247.5c-3.32,-1.15 -10.46,-2.51 -15.4,-3.74 -6.26,-1.57 -13.37,-3.58 -16.81,-4.09 -1.52,-0.23 -1.88,0.57 -1.88,0.57 0,0 1.28,1.12 0.95,2.39 -3.59,14.14 -5.89,26.32 10.91,30.53 14.8,3.71 19.13,-7.63 22.8,-22.08 0.32,-1.27 1.61,-1.74 1.61,-1.74 0,0 0.61,-0.87 -2.18,-1.84z"/>
   <path class="fil0" d="M849.32 43.63c0,0 -2.87,-4.77 -13.55,-2.31 -16.02,12.74 -50.07,52.6 -40.32,167.25 8.62,3.52 11.37,2.32 11.37,2.32 0,0 73.03,-108.76 42.5,-167.26z"/>
   <path class="fil3" d="M897.68 80.1c0,0 -5.08,-13.17 -23.98,-23.32 10.4,10.45 32.48,69.53 -54.88,156.58 4.79,1.47 8.95,1.16 8.95,1.16 0,0 100.45,-75.93 69.91,-134.42z"/>
   <path class="fil4" d="M910.9 109.37c-1.49,-17.67 -13.22,-29.27 -13.22,-29.27 26.76,59.46 -69.91,134.42 -69.91,134.42 0,0 5.38,1.89 9.47,0.75 40.74,-31.96 75.54,-62.98 73.66,-105.9z"/>
   <path class="fil5" d="M874.21 56.91c-9.75,-11.91 -25.41,-13.4 -25.41,-13.4 30.54,58.49 -43.6,167.24 -43.6,167.24 0,0 9.73,2.44 14.53,2.83 87.36,-87.05 64.88,-146.22 54.48,-156.67z"/>
   <path class="fil6" d="M808.78 40.51c-21.48,0.02 -33.28,11.12 -33.28,11.12 -54.82,37.06 -1.13,150 -1.13,150 0,0 4.42,2.46 9.34,3.42 -35.33,-117.79 10.93,-160.25 25.07,-164.54z"/>
   <path class="fil7" d="M778.07 50.11c0,0 -14.59,3.9 -24.35,18.76 -24.07,38.02 -5.24,80.11 12.74,128.14 3.06,2.93 7.91,4.62 7.91,4.62 0,0 -51.13,-114.46 3.7,-151.52z"/>
   <path class="fil8" d="M837.94 41.34c0,0 -15.4,-6.84 -29.67,-0.96 -14.14,4.29 -59.89,46.88 -24.56,164.67 4.41,1.92 12.26,3.62 12.26,3.62 0,0 -12.86,-130.27 41.97,-167.33z"/>
   <path class="fil2" d="M831.24 214.19c-6.75,-0.49 -19.3,-1.7 -28.74,-4.07 -11.22,-2.81 -22,-6.94 -29.46,-9.91 -4.73,-1.88 -7.17,-4.76 -7.17,-4.76l0.59 1.56 2.69 5.8 10.68 22.71c0,0 11.3,4.46 17.75,6.08 7.3,1.83 18.02,2.9 18.02,2.9l23.84 -21.06c0,0 -3.08,1.11 -8.2,0.75z"/>
   <path class="fil9" d="M771.83 201.89c3.37,6.76 7.29,17.19 10.88,20.41 2.33,3.26 24.68,8.29 29.23,9.1 0.73,0.13 0.82,-0.29 -0.19,-0.69 -7.24,-2.81 -11.23,-4.74 -20.44,-11.26 -10.15,-7.2 -16.33,-15.76 -18.73,-17.79 -0.82,-0.7 -0.88,-0.63 -0.98,-0.54 -0.08,0.09 -0.05,0.2 0.23,0.77z"/>
  </g>
  <g id="_3173905909312">
   <g>
    <path class="fil2" d="M357.19 367.83l-0.28 7.85 -4.28 0c-0.24,-1.02 -0.5,-1.82 -0.79,-2.39 -0.29,-0.57 -0.65,-1.03 -1.08,-1.37 -0.5,-0.41 -1.12,-0.69 -1.84,-0.86 -0.73,-0.16 -1.92,-0.25 -3.56,-0.25l-0.81 0 -3.47 0 -0.21 5.78 1.04 0c1.22,0 2.09,-0.23 2.6,-0.69 0.51,-0.46 0.78,-1.28 0.83,-2.45l0.01 -0.19 3.38 0 -0.36 9.62 -3.38 0c0,-1.48 -0.21,-2.43 -0.63,-2.86 -0.42,-0.44 -1.26,-0.66 -2.51,-0.66l-1.08 0 -0.24 6.56 4.79 0c1.85,0 3.13,-0.08 3.84,-0.26 0.7,-0.17 1.26,-0.47 1.66,-0.89 0.43,-0.5 0.79,-1.11 1.06,-1.84 0.26,-0.72 0.46,-1.63 0.58,-2.72l4.43 0 -0.32 8.7 -28.52 0 0.11 -2.99 1.36 0c0.89,0 1.48,-0.08 1.77,-0.24 0.29,-0.17 0.45,-0.64 0.48,-1.42l0 -0.15 0.43 -11.51c0.03,-0.81 -0.09,-1.32 -0.34,-1.51 -0.26,-0.18 -0.87,-0.28 -1.82,-0.28l-1.32 0 0.11 -2.98 28.36 0zm3.52 13.32l3.91 0c0.58,1.62 1.59,2.89 3.05,3.81 1.46,0.92 3.19,1.37 5.21,1.37 1.22,0 2.21,-0.2 2.96,-0.61 0.74,-0.4 1.13,-0.93 1.15,-1.58 0.04,-1.01 -1.52,-1.86 -4.68,-2.55 -1.03,-0.21 -1.84,-0.39 -2.43,-0.54 -1.89,-0.45 -3.36,-0.83 -4.38,-1.14 -1.03,-0.32 -1.76,-0.62 -2.21,-0.89 -1.06,-0.64 -1.84,-1.34 -2.33,-2.12 -0.49,-0.77 -0.72,-1.64 -0.68,-2.63 0.07,-2.11 1.14,-3.82 3.21,-5.12 2.05,-1.3 4.74,-1.95 8.04,-1.95 1.68,0 3.25,0.12 4.69,0.38 1.44,0.26 2.84,0.65 4.18,1.18l0.77 -1.06 3.88 0 -0.27 7.32 -4.55 0c-0.39,-1.49 -1.19,-2.6 -2.39,-3.33 -1.21,-0.73 -2.84,-1.1 -4.9,-1.1 -1.21,0 -2.21,0.22 -3,0.65 -0.8,0.43 -1.21,0.95 -1.23,1.57 -0.03,0.94 1.44,1.66 4.41,2.13 0.73,0.13 1.3,0.22 1.7,0.3 4.14,0.74 7.03,1.67 8.66,2.78 1.64,1.11 2.43,2.62 2.36,4.53 -0.08,2.13 -1.18,3.83 -3.29,5.09 -2.11,1.26 -4.91,1.9 -8.41,1.9 -1.6,0 -3.14,-0.15 -4.61,-0.43 -1.47,-0.28 -2.92,-0.71 -4.35,-1.28l-1.05 1.17 -3.71 0 0.29 -7.85zm35.45 -10.02c-1.49,0 -2.63,0.39 -3.45,1.17 -0.81,0.78 -1.25,1.92 -1.31,3.42l0 0.09 -3.99 0 0.3 -7.98 28.44 0 -0.3 7.98 -3.95 0 0.01 -0.09c0.05,-1.49 -0.3,-2.63 -1.06,-3.41 -0.77,-0.79 -1.9,-1.18 -3.4,-1.18l-1.17 0 -0.48 12.98c-0.03,0.81 0.08,1.32 0.35,1.51 0.27,0.2 0.89,0.3 1.84,0.3l2.25 0 -0.11 2.99 -17.76 0 0.11 -2.99 2.09 0c0.91,0 1.5,-0.08 1.8,-0.25 0.29,-0.17 0.45,-0.69 0.48,-1.56l0.48 -12.98 -1.17 0zm16.51 15.41c0.03,-0.81 0.41,-1.49 1.15,-2.04 0.74,-0.56 1.63,-0.84 2.68,-0.84 1.05,0 1.91,0.28 2.6,0.84 0.68,0.55 1.02,1.23 0.99,2.04 -0.03,0.82 -0.41,1.51 -1.14,2.06 -0.73,0.56 -1.62,0.84 -2.66,0.84 -1.06,0 -1.93,-0.28 -2.62,-0.84 -0.7,-0.55 -1.03,-1.24 -1,-2.06z"/>
    <path class="fil2" d="M433.3 372.28c0.04,-1.63 0.09,-3.27 0.13,-4.91 2.02,-0.33 3.64,-0.88 4.85,-1.67 1.19,-0.78 2.02,-1.81 2.47,-3.09 2.61,-0.16 5.24,-0.33 7.87,-0.49 -0.13,4.27 -0.25,8.54 -0.36,12.8 -0.11,4.27 -0.23,8.54 -0.34,12.82 -0.02,0.89 0.19,1.44 0.62,1.68 0.42,0.23 1.38,0.26 2.87,0.09 0.37,-0.05 0.75,-0.1 1.14,-0.14 -0.05,1.55 -0.09,3.11 -0.13,4.65 -6.58,0.86 -13.17,1.76 -19.75,2.66 0.04,-1.62 0.08,-3.24 0.12,-4.86 0.45,-0.06 0.9,-0.12 1.37,-0.18 1.57,-0.19 2.6,-0.48 3.1,-0.84 0.49,-0.36 0.75,-1.29 0.79,-2.76 0,-0.07 0,-0.14 0.01,-0.21 0.06,-2.66 0.13,-5.33 0.19,-8 0.07,-2.65 0.15,-5.33 0.22,-7.99 -1.72,0.14 -3.45,0.29 -5.17,0.44zm41.54 6.3c-1.17,0.69 -2.33,1.24 -3.48,1.63 -1.15,0.39 -2.32,0.61 -3.51,0.7 -3.07,0.21 -5.56,-0.51 -7.4,-2.21 -1.85,-1.71 -2.73,-4.08 -2.65,-7.11 0.09,-3.3 1.29,-6 3.63,-8.08 2.32,-2.07 5.41,-3.17 9.25,-3.29 4.6,-0.14 8.18,1.2 10.72,3.94 1.27,1.36 2.22,2.99 2.81,4.88 0.6,1.89 0.87,4.05 0.81,6.46 -0.08,2.61 -0.51,4.94 -1.28,7.01 -0.77,2.06 -1.9,3.88 -3.35,5.44 -2.95,3.17 -6.84,4.9 -11.68,5.28 -3.12,0.25 -5.63,-0.17 -7.5,-1.35 -1.88,-1.18 -2.79,-2.87 -2.74,-5.08 0.03,-1.34 0.49,-2.45 1.38,-3.32 0.89,-0.87 2.07,-1.36 3.52,-1.48 1.33,-0.1 2.42,0.17 3.26,0.85 0.83,0.66 1.24,1.54 1.21,2.62 -0.01,0.67 -0.18,1.26 -0.48,1.78 -0.3,0.51 -0.75,0.97 -1.34,1.37 0.35,0.11 0.69,0.18 1.01,0.21 0.33,0.04 0.64,0.04 0.95,0.01 1.98,-0.15 3.6,-1.14 4.85,-2.96 1.24,-1.82 1.93,-4.18 2,-7.13 0,-0.05 0,-0.11 0.01,-0.17zm-3.59 -14.09c-1.03,0.03 -1.88,0.58 -2.53,1.62 -0.65,1.06 -1.01,2.44 -1.05,4.14 -0.05,1.71 0.23,3.07 0.82,4.07 0.6,0.99 1.41,1.45 2.44,1.4 1.05,-0.05 1.93,-0.6 2.58,-1.64 0.65,-1.03 1.02,-2.41 1.07,-4.13 0.05,-1.71 -0.25,-3.06 -0.85,-4.05 -0.6,-0.98 -1.43,-1.45 -2.48,-1.41zm20.41 11.92c-1.42,-1.01 -2.48,-2.09 -3.14,-3.23 -0.66,-1.15 -0.97,-2.44 -0.93,-3.89 0.08,-2.86 1.34,-5.13 3.79,-6.79 2.43,-1.64 5.72,-2.44 9.86,-2.33 3.86,0.1 6.89,0.94 9.06,2.45 2.17,1.51 3.22,3.53 3.15,5.99 -0.04,1.46 -0.47,2.64 -1.28,3.58 -0.83,0.96 -2.02,1.65 -3.62,2.12 2.26,1.23 3.92,2.6 4.93,4.12 1.03,1.54 1.5,3.36 1.44,5.45 -0.08,3.23 -1.48,5.61 -4.19,7.15 -2.71,1.53 -6.44,2.07 -11.22,1.78 -4.5,-0.28 -7.94,-1.12 -10.31,-2.68 -2.35,-1.55 -3.49,-3.7 -3.42,-6.52 0.05,-1.68 0.54,-3.11 1.5,-4.28 0.95,-1.18 2.4,-2.15 4.38,-2.92zm4.61 2.64c-1.15,0.57 -2.01,1.22 -2.6,1.96 -0.58,0.75 -0.88,1.56 -0.91,2.43 -0.04,1.44 0.57,2.64 1.86,3.6 1.29,0.96 3.02,1.49 5.17,1.61 1.78,0.11 3.16,-0.08 4.12,-0.59 0.96,-0.5 1.46,-1.29 1.49,-2.35 0.02,-0.86 -0.29,-1.65 -0.96,-2.34 -0.66,-0.68 -1.83,-1.41 -3.5,-2.19 -1.56,-0.72 -3.12,-1.43 -4.67,-2.13zm7.38 -7.26c0.94,-0.43 1.64,-0.91 2.1,-1.46 0.47,-0.57 0.72,-1.22 0.73,-1.95 0.03,-1.01 -0.42,-1.88 -1.33,-2.58 -0.93,-0.72 -2.15,-1.09 -3.65,-1.14 -1.47,-0.04 -2.66,0.18 -3.54,0.66 -0.89,0.49 -1.34,1.15 -1.36,2 -0.02,0.67 0.28,1.25 0.89,1.76 0.6,0.51 1.75,1.05 3.4,1.67 0.92,0.34 1.84,0.69 2.76,1.04zm13.85 5.6c0.21,-2.72 0.45,-5.44 0.66,-8.17 0.22,-2.72 0.46,-5.46 0.69,-8.19 2.85,0.4 5.15,0.71 6.87,0.91 1.72,0.19 3.16,0.34 4.3,0.41 3.03,0.17 6.07,0 9.14,-0.51 0.7,-0.12 1.12,-0.15 1.29,-0.14 0.26,0 0.48,0.16 0.66,0.43 0.18,0.27 0.26,0.6 0.25,0.99 -0.04,1.64 -1.25,3.13 -3.63,4.43 -2.37,1.29 -5.14,1.79 -8.3,1.56 -0.61,-0.04 -1.39,-0.13 -2.31,-0.27 -0.92,-0.13 -2.12,-0.32 -3.57,-0.56 -0.11,1.38 -0.22,2.75 -0.33,4.13 0.9,-0.47 1.89,-0.81 2.95,-1 1.08,-0.19 2.27,-0.23 3.58,-0.13 4.03,0.32 7.18,1.67 9.45,4.1 2.26,2.44 3.34,5.62 3.24,9.5 -0.11,3.77 -1.53,6.69 -4.29,8.7 -2.75,2 -6.33,2.68 -10.72,2.12 -3.86,-0.49 -6.88,-1.71 -9.07,-3.64 -2.18,-1.92 -3.24,-4.3 -3.16,-7.14 0.04,-1.62 0.57,-2.86 1.57,-3.76 1.01,-0.89 2.32,-1.27 3.94,-1.13 1.41,0.13 2.55,0.66 3.41,1.59 0.87,0.94 1.29,2.06 1.25,3.35 -0.03,1.25 -0.32,2.17 -0.87,2.73 -0.55,0.58 -1.47,0.9 -2.72,1.01 0.59,0.59 1.21,1.06 1.84,1.4 0.61,0.34 1.28,0.55 1.99,0.63 1.79,0.21 3.25,-0.34 4.41,-1.64 1.16,-1.31 1.76,-3.12 1.82,-5.43 0.06,-2.1 -0.36,-3.8 -1.25,-5.09 -0.89,-1.29 -2.12,-1.99 -3.69,-2.13 -0.73,-0.06 -1.44,0.01 -2.1,0.23 -0.65,0.22 -1.3,0.61 -1.92,1.17 -1.8,-0.16 -3.59,-0.31 -5.38,-0.46z"/>
    <path class="fil2" d="M571.42 375.26l2.12 -2.17c5.67,-5.83 10.95,-8.75 15.84,-8.75 3.05,0 5.64,0.95 7.77,2.84 2.13,1.89 3.2,4.18 3.2,6.9 0,1.62 -0.56,3.04 -1.71,4.24 -1.14,1.21 -2.49,1.81 -4.05,1.81 -2.32,0 -4.24,-1.62 -5.76,-4.87 0.92,0.32 1.71,0.48 2.37,0.48 1.37,0 2.55,-0.37 3.54,-1.11 1,-0.75 1.49,-1.64 1.49,-2.65 0,-0.9 -0.24,-1.58 -0.73,-2.03 -0.5,-0.46 -1.23,-0.69 -2.19,-0.69 -2.09,0 -5.83,2.76 -11.23,8.29l-2.31 2.35c5.27,2.6 9.94,3.9 13.99,3.9 4.25,0 7.77,-1.13 10.58,-3.39 2.8,-2.27 4.2,-5.12 4.2,-8.57 0,-2.04 -0.55,-3.73 -1.68,-5.07 3.64,0 6.53,0.69 8.68,2.05 2.15,1.36 3.22,3.21 3.22,5.54 0,3.67 -2,6.84 -6.02,9.54 -4.02,2.69 -8.76,4.03 -14.22,4.03 -3.94,0 -8.05,-0.76 -12.31,-2.28l1.63 1.55c4.72,4.46 8.44,6.69 11.17,6.69 0.98,0 1.73,-0.19 2.23,-0.6 0.5,-0.4 0.75,-1.02 0.75,-1.85 0,-0.4 -0.16,-0.94 -0.48,-1.62 4.12,0.57 6.18,2.25 6.18,5.02 0,1.41 -0.5,2.47 -1.52,3.17 -1.01,0.71 -2.52,1.06 -4.53,1.06 -4.58,0 -9.92,-3.14 -16.01,-9.4l-1.6 -1.66c-2.47,-2.56 -4.7,-4.53 -6.65,-5.93 -4.29,4.07 -8.28,6.11 -11.95,6.11 -2.48,0 -4.54,-0.75 -6.18,-2.26 -1.65,-1.52 -2.46,-3.4 -2.46,-5.69 0,-1.89 0.69,-3.49 2.08,-4.81 1.39,-1.32 3.08,-1.98 5.09,-1.98 2.15,0 4.64,0.6 7.46,1.81zm-2.49 2.49c-1.52,-0.6 -2.92,-0.89 -4.2,-0.89 -1.13,0 -1.97,0.21 -2.53,0.63 -0.56,0.42 -0.83,1.05 -0.83,1.89 0,0.62 0.17,1.09 0.53,1.4 0.35,0.31 0.88,0.47 1.59,0.47 1.1,0 2.91,-1.17 5.44,-3.5z"/>
    <path class="fil2" d="M301.18 374.17l-2.12 -2.18c-5.65,-5.82 -10.93,-8.72 -15.84,-8.72 -3.03,0 -5.61,0.95 -7.75,2.84 -2.15,1.89 -3.23,4.18 -3.23,6.85 0,1.64 0.57,3.05 1.72,4.24 1.14,1.19 2.49,1.79 4.05,1.79 2.34,0 4.26,-1.6 5.76,-4.82 -0.92,0.33 -1.71,0.5 -2.37,0.5 -1.37,0 -2.55,-0.37 -3.54,-1.12 -1,-0.74 -1.49,-1.62 -1.49,-2.67 0,-0.91 0.24,-1.58 0.72,-2.03 0.48,-0.45 1.22,-0.67 2.2,-0.67 2.08,0 5.83,2.74 11.23,8.24l2.31 2.35c-5.28,2.64 -9.94,3.96 -13.99,3.96 -4.25,0 -7.77,-1.14 -10.58,-3.4 -2.81,-2.27 -4.2,-5.11 -4.2,-8.54 0,-2.03 0.55,-3.73 1.68,-5.1 -3.64,0 -6.53,0.69 -8.68,2.07 -2.15,1.37 -3.22,3.23 -3.22,5.55 0,3.65 2,6.82 6.02,9.52 4.02,2.68 8.77,4.02 14.25,4.02 3.97,0 8.06,-0.76 12.28,-2.28l-1.63 1.6c-4.7,4.47 -8.42,6.71 -11.17,6.71 -1.01,0 -1.76,-0.2 -2.25,-0.62 -0.49,-0.41 -0.73,-1.05 -0.73,-1.88 0,-0.38 0.17,-0.91 0.51,-1.59 -4.14,0.54 -6.21,2.23 -6.21,5.01 0,1.39 0.5,2.43 1.5,3.13 1.01,0.71 2.51,1.06 4.55,1.06 4.58,0 9.92,-3.12 16,-9.38l1.61 -1.65c2.47,-2.54 4.71,-4.52 6.68,-5.91 4.27,4.05 8.25,6.07 11.92,6.07 2.47,0 4.54,-0.76 6.18,-2.25 1.65,-1.5 2.46,-3.39 2.46,-5.67 0,-1.91 -0.69,-3.53 -2.08,-4.85 -1.39,-1.32 -3.08,-1.98 -5.09,-1.98 -2.15,0 -4.64,0.61 -7.46,1.8zm2.49 2.5c1.52,-0.59 2.92,-0.89 4.2,-0.89 1.11,0 1.95,0.21 2.51,0.64 0.56,0.42 0.85,1.08 0.85,1.95 0,0.61 -0.18,1.07 -0.53,1.39 -0.36,0.31 -0.88,0.48 -1.59,0.48 -1.1,0 -2.92,-1.19 -5.44,-3.57z"/>
   </g>
   <path class="fil2" d="M575.17 231.31l10.94 -46.48c0.57,-2.4 -1.26,-4.71 -3.73,-4.71l-8.44 0c-3.5,-0.08 -3.97,-0.94 -3.83,-3.97 0.29,-10.93 -1.79,-15.68 -7.82,-24.26 -1.43,-2.03 -0.23,-4.06 2.5,-4.34l27.38 -0.12c1.75,0 3.28,-1.19 3.71,-2.89l7.65 -30.25c0.39,-1.54 1.69,-2.68 3.26,-2.86l41.97 -4.96c2.67,-0.31 4.82,2.14 4.17,4.74l-7.91 31.46c-0.6,2.42 1.23,4.76 3.72,4.76l28.53 0.04c2.55,-0.04 3.86,1.89 2.71,4.13l-13.56 26.43c-0.65,1.28 -1.97,2.09 -3.41,2.09l-24.08 0c-1.78,0 -3.32,1.22 -3.73,2.95l-12.07 51.2c-2.64,11.19 -3.02,19.3 -0.85,24.28 1.19,2.72 2.85,6.54 6.68,8.06 18.25,7.22 0.97,6.32 0.97,6.32l-45.77 -0.2c-2.53,0.04 -3.87,-0.16 -4.66,-0.5 -5.71,-2.46 -6.54,-4.16 -7.81,-9.64 -1.34,-5.83 -0.06,-16.23 3.48,-31.28z"/>
   <path class="fil2" d="M633.29 272.97l83.56 -92.8 -40.49 0c-3.44,0 -3.24,-1.94 -2.19,-4.13l12.76 -25.03c1.49,-2.91 1.91,-3.54 5.32,-3.53l45.81 0.1c4.53,16.24 9.52,31.08 15.34,44.49l-43.45 48.2 57.48 0.34c-2.89,10.23 -5.59,26.26 2.72,32.17l-136.86 0.19z"/>
   <g>
    <path class="fil2" d="M111.37 270.38l47.15 -194.46c0.42,-1.69 2.16,-2.49 3.71,-2.47l53.73 0c17.48,0 31.1,1.14 40.78,3.44 9.69,2.3 17.86,6.14 24.5,11.55 6.91,5.4 11.66,12.16 14.22,20.3 2.55,8.11 2.71,16.71 0.5,25.77 -4.89,20.19 -16.73,36.16 -35.51,48 -18.73,11.83 -41.75,17.76 -69,17.76 -2.81,0 -4.93,0 -6.39,-0.05 -1.39,-0.05 -2.71,-0.14 -3.88,-0.23l-17.21 70.89c-0.35,1.36 -1.39,2.15 -2.75,2.09l-0.13 0 -47.85 0 -0.09 -0.02c-1.61,-0.01 -2.07,-1.18 -1.8,-2.5l0.02 -0.07zm98.79 -160.29l-7.18 0 -12.92 53.26 9.56 0c13.32,0 24.02,-2.29 32.17,-6.96 8.15,-4.65 13.24,-11.3 15.36,-19.99 2.21,-9.11 0.37,-15.74 -5.52,-19.97 -5.89,-4.22 -16.39,-6.34 -31.47,-6.34z"/>
   </g>
   <path class="fil2" d="M284.69 272.97l-0.27 0 -43.32 0 -0.07 -0.02c-1.68,-0.01 -2.12,-1.3 -1.75,-2.7l0.02 -0.1 19.65 -80.38c1.49,-0.85 2.96,-1.72 4.42,-2.64 15.94,-10.06 27.71,-23.32 34.37,-40.18 4.79,0 9.58,0 14.36,0 1.41,0.13 1.84,1.04 1.54,2.34l-4.62 21.43c7.56,-8.69 15.54,-14.98 23.83,-18.92 8.29,-3.95 17.67,-4.88 28.64,-4.88l1.38 0c1.69,0.01 2.12,1.31 1.75,2.71l-9.82 40.53c-0.49,2.16 -2.64,3.03 -3.3,2.98 -0.8,0 -1.61,0 -2.42,0l-5.35 0c-14.88,0 -25.04,0.5 -30.87,3.55 -5.91,3.1 -10.24,10.48 -13.09,22.22l-12.58 51.86 0 0.02 -0.02 0.06c-0.32,1.28 -1.25,2.06 -2.48,2.12z"/>
   <path class="fil2" d="M390.31 272.97l-43.39 0 -0.02 -0.01c-1.69,-0.01 -2.12,-1.3 -1.75,-2.7l0.08 -0.47 24.89 -101.89 0.08 0.13c0.26,0.78 0.57,1.55 0.95,2.31 4.69,5.34 11.96,8.21 20.63,9.11 9.13,0.95 15.39,-0.23 25.59,-7.71l-24.14 99.53c-0.39,1.13 -1.37,1.78 -2.61,1.68l-0.31 0.02z"/>
   <path class="fil2" d="M447.36 272.97l-42.65 0 -0.03 0c-1.68,-0.01 -2.12,-1.31 -1.75,-2.71l0.01 -0.07 29.25 -120.89 0 -0.01 0 -0.01 0.09 -0.37c0.32,-1.03 1.12,-1.69 2.16,-1.78l0.48 0 39.45 0c1.44,0.02 2.18,0.73 1.85,2.46l-4.81 20.15c9.24,-8.13 18.51,-14.18 27.7,-18.17 9.18,-4.01 18.6,-5.97 28.23,-5.97 14.56,0 24.67,3.76 30.33,11.27 5.72,7.51 6.82,18.46 3.3,32.92l-19.63 80.96 -0.02 0.04c-0.26,1.42 -1.33,2.27 -2.73,2.16l-0.43 0.02 -42.29 0 -0.05 -0.01c-1.69,-0.01 -2.12,-1.3 -1.76,-2.7l0.07 -0.4 16.48 -67.95c1.58,-6.53 1.32,-11.41 -0.86,-14.71 -2.1,-3.33 -6.07,-4.98 -11.89,-4.98 -8.27,0 -15.29,2.55 -20.97,7.57 -5.71,5.07 -9.72,12.4 -12.05,22.03l-14.28 58.88 -0.04 0.09c-0.26,1.42 -1.33,2.27 -2.73,2.16l-0.43 0.02z"/>
   <path class="fil2" d="M792.59 320.3c10.41,0 18.86,8.45 18.86,18.87 0,10.41 -8.45,18.86 -18.86,18.86 -10.42,0 -18.87,-8.45 -18.87,-18.86 0,-10.42 8.45,-18.87 18.87,-18.87zm0 -3.16c12.16,0 22.02,9.86 22.02,22.03 0,12.16 -9.86,22.02 -22.02,22.02 -12.17,0 -22.03,-9.86 -22.03,-22.02 0,-12.17 9.86,-22.03 22.03,-22.03zm-8.88 33.39l0 -22.73 9.66 0c2.43,0 4.2,0.21 5.3,0.62 1.11,0.4 1.98,1.13 2.65,2.17 0.66,1.05 0.99,2.24 0.99,3.58 0,1.71 -0.5,3.12 -1.5,4.23 -1,1.11 -2.49,1.81 -4.48,2.1 0.99,0.58 1.81,1.21 2.45,1.9 0.64,0.7 1.51,1.93 2.6,3.7l2.77 4.43 -5.48 0 -3.3 -4.96c-1.18,-1.76 -1.98,-2.88 -2.42,-3.33 -0.44,-0.46 -0.9,-0.78 -1.38,-0.95 -0.5,-0.17 -1.27,-0.25 -2.33,-0.25l-0.93 0 0 9.49 -4.6 0zm4.6 -13.11l3.4 0c2.2,0 3.57,-0.1 4.12,-0.28 0.54,-0.18 0.98,-0.51 1.28,-0.96 0.32,-0.46 0.47,-1.03 0.47,-1.71 0,-0.77 -0.21,-1.38 -0.61,-1.86 -0.41,-0.47 -0.99,-0.77 -1.73,-0.89 -0.37,-0.05 -1.49,-0.08 -3.35,-0.08l-3.58 0 0 5.78z"/>
  </g>
  <path class="fil10" d="M151.76 296.08l-2.6 15.14c-1.53,-2.11 -3.17,-3.65 -4.88,-4.63 -1.71,-0.98 -3.65,-1.48 -5.8,-1.48 -3.98,0 -7.44,1.36 -10.37,4.07 -2.92,2.72 -4.76,6.26 -5.52,10.63 -0.69,4.07 -0.02,7.45 2.03,10.13 2.05,2.69 5.02,4.03 8.91,4.03 2.14,0 4.25,-0.49 6.3,-1.47 2.05,-0.97 4.22,-2.53 6.48,-4.65l-2.6 15.14c-2.38,1.07 -4.71,1.87 -6.97,2.41 -2.27,0.53 -4.5,0.79 -6.73,0.79 -2.77,0 -5.27,-0.33 -7.51,-0.98 -2.23,-0.67 -4.21,-1.67 -5.95,-3.01 -3.35,-2.55 -5.7,-5.75 -7.02,-9.61 -1.33,-3.87 -1.58,-8.22 -0.75,-13.05 0.67,-3.89 1.9,-7.42 3.72,-10.61 1.8,-3.18 4.2,-6.06 7.18,-8.65 2.83,-2.48 5.86,-4.33 9.09,-5.56 3.23,-1.22 6.69,-1.84 10.39,-1.84 2.22,0 4.37,0.26 6.46,0.8 2.08,0.53 4.13,1.34 6.14,2.4zm79.11 23.53c-0.63,3.66 -1.89,7.08 -3.77,10.27 -1.89,3.2 -4.34,6.05 -7.34,8.58 -3.02,2.49 -6.31,4.41 -9.88,5.78 -3.56,1.35 -7.13,2.02 -10.71,2.02 -3.64,0 -7,-0.67 -10.09,-2.02 -3.08,-1.37 -5.67,-3.29 -7.76,-5.78 -2.19,-2.53 -3.67,-5.39 -4.48,-8.62 -0.8,-3.21 -0.89,-6.62 -0.27,-10.23 0.62,-3.64 1.88,-7.05 3.79,-10.26 1.91,-3.2 4.38,-6.07 7.43,-8.59 2.95,-2.5 6.19,-4.42 9.74,-5.78 3.55,-1.35 7.15,-2.03 10.79,-2.03 3.6,0 6.97,0.68 10.08,2.03 3.1,1.36 5.71,3.28 7.83,5.78 2.12,2.5 3.57,5.36 4.38,8.58 0.8,3.21 0.89,6.63 0.26,10.27zm-29.71 14.92c3.84,0 7.25,-1.4 10.25,-4.22 3,-2.84 4.86,-6.4 5.6,-10.7 0.73,-4.25 0.07,-7.81 -1.98,-10.66 -2.06,-2.85 -4.98,-4.27 -8.75,-4.27 -3.84,0 -7.25,1.42 -10.25,4.25 -3,2.84 -4.87,6.4 -5.6,10.68 -0.75,4.35 -0.13,7.92 1.87,10.72 1.99,2.81 4.95,4.2 8.86,4.2zm115.49 10.38l-12.95 0 0.8 -21.97c0.05,-1.55 0.16,-3.27 0.31,-5.18 0.15,-1.89 0.34,-3.97 0.6,-6.21 -0.7,2.16 -1.79,4.84 -3.29,8.06 -0.33,0.66 -0.57,1.16 -0.72,1.49l-10.98 23.81 -9.24 0 -2.81 -23.81c-0.04,-0.33 -0.09,-0.83 -0.17,-1.49 -0.42,-3.22 -0.59,-5.89 -0.53,-8.02 -0.46,1.92 -0.95,3.83 -1.47,5.71 -0.5,1.88 -1.04,3.77 -1.61,5.64l-6.76 21.97 -12.88 0 16.57 -50.82 13.7 0 3.17 26.21c0.01,0.18 0.06,0.48 0.13,0.91 0.31,2.33 0.41,4.33 0.32,6 0.25,-0.91 0.59,-1.9 1.03,-3.01 0.44,-1.1 1.03,-2.42 1.73,-3.97l12.22 -26.14 13.74 0 -0.91 50.82zm88.89 0l-12.94 0 0.79 -21.97c0.06,-1.55 0.16,-3.27 0.31,-5.18 0.16,-1.89 0.35,-3.97 0.6,-6.21 -0.7,2.16 -1.78,4.84 -3.28,8.06 -0.33,0.66 -0.57,1.16 -0.72,1.49l-10.98 23.81 -9.24 0 -2.81 -23.81c-0.04,-0.33 -0.1,-0.83 -0.17,-1.49 -0.42,-3.22 -0.59,-5.89 -0.53,-8.02 -0.46,1.92 -0.96,3.83 -1.47,5.71 -0.5,1.88 -1.05,3.77 -1.62,5.64l-6.75 21.97 -12.88 0 16.56 -50.82 13.71 0 3.17 26.21c0.01,0.18 0.05,0.48 0.12,0.91 0.31,2.33 0.42,4.33 0.32,6 0.25,-0.91 0.59,-1.9 1.04,-3.01 0.44,-1.1 1.02,-2.42 1.73,-3.97l12.22 -26.14 13.74 0 -0.92 50.82zm39.06 -50.82l13.78 0 -4.24 24.72c-0.62,3.63 -0.97,6.25 -1.07,7.82 -0.08,1.59 0,2.92 0.27,3.98 0.3,1.3 1.06,2.29 2.26,2.98 1.2,0.67 2.75,1.02 4.65,1.02 1.89,0 3.55,-0.35 4.98,-1.02 1.42,-0.69 2.53,-1.68 3.29,-2.98 0.64,-1.06 1.17,-2.39 1.63,-3.98 0.45,-1.57 1,-4.19 1.62,-7.82l0.59 -3.47 3.65 -21.25 13.79 0 -4.61 26.87c-0.96,5.58 -1.99,9.69 -3.13,12.34 -1.12,2.64 -2.64,4.91 -4.56,6.79 -2.08,2.05 -4.73,3.6 -7.94,4.63 -3.21,1.03 -6.97,1.54 -11.29,1.54 -4.36,0 -7.95,-0.51 -10.79,-1.54 -2.84,-1.03 -4.97,-2.58 -6.37,-4.63 -1.25,-1.88 -1.99,-4.15 -2.22,-6.79 -0.22,-2.65 0.14,-6.76 1.09,-12.34l0.91 -5.27 3.71 -21.6zm70.15 50.82l8.72 -50.82 13.36 0 14.73 26.14c0.28,0.53 0.7,1.61 1.26,3.22 0.58,1.6 1.18,3.52 1.81,5.74 0.09,-2.11 0.21,-3.98 0.36,-5.62 0.16,-1.65 0.35,-3.11 0.56,-4.38l4.31 -25.1 13.29 0 -8.72 50.82 -13.29 0 -14.7 -26.24c-0.31,-0.53 -0.74,-1.61 -1.31,-3.21 -0.57,-1.61 -1.16,-3.5 -1.78,-5.68 -0.1,2.13 -0.22,4.01 -0.37,5.66 -0.15,1.65 -0.34,3.1 -0.56,4.37l-4.31 25.1 -13.36 0zm84.08 0l8.72 -50.82 14 0 -8.72 50.82 -14 0zm55.63 0l6.66 -38.81 -11.37 0 2.06 -12.01 36.6 0 -2.06 12.01 -11.37 0 -6.66 38.81 -13.86 0zm64.19 0l3.98 -23.19 -13.03 -27.63 15.9 0 4.58 13.09c0.04,0.07 0.09,0.19 0.15,0.38 0.48,1.36 0.75,2.68 0.82,3.92 0.42,-1.13 1.13,-2.39 2.14,-3.78 0.18,-0.26 0.3,-0.42 0.37,-0.52l9.01 -13.09 15.93 0 -22.51 27.63 -3.98 23.19 -13.36 0z"/>
 </g>
</svg>
