<?xml version="1.0" encoding="UTF-8"?>
<!DOCTYPE svg PUBLIC "-//W3C//DTD SVG 1.1//EN" "http://www.w3.org/Graphics/SVG/1.1/DTD/svg11.dtd">
<!-- Creator: CorelDRAW -->
<svg xmlns="http://www.w3.org/2000/svg" xml:space="preserve" width="236px" height="236px" version="1.1" style="shape-rendering:geometricPrecision; text-rendering:geometricPrecision; image-rendering:optimizeQuality; fill-rule:evenodd; clip-rule:evenodd"
viewBox="0 0 236 236"
 xmlns:xlink="http://www.w3.org/1999/xlink"
 xmlns:xodm="http://www.corel.com/coreldraw/odm/2003">
 <defs>
  <style type="text/css">
   <![CDATA[
    .fil0 {fill:#FEFEFE}
    .fil10 {fill:#2B2A29}
    .fil6 {fill:#F29114}
    .fil3 {fill:#DD1F40}
    .fil4 {fill:#F3D426}
    .fil5 {fill:#A89526}
    .fil1 {fill:#A35D2C}
    .fil7 {fill:#54C1DC}
    .fil9 {fill:#1E6264}
    .fil2 {fill:#1C1C1D}
    .fil8 {fill:#008CA6}
   ]]>
  </style>
 </defs>
 <g id="Capa_x0020_1">
  <metadata id="CorelCorpID_0Corel-Layer"/>
  <g id="_3172988024304">
   <path class="fil0" d="M88.49 25c7.87,-5.61 17.89,-8.54 27.51,-8.97 8.33,-3 17.97,-2.58 26.34,0.15 4.42,-0.38 9.18,0.27 12.85,2.83 8.24,1.72 16.41,6.08 22.03,12.36 7.77,4.6 16.59,12.22 20.51,20.44 6.58,7.24 11.19,18.24 12,27.88l0.02 0.36c1.77,40.63 -32.72,69.14 -61.64,91.89l-16.92 14.94 -1.39 3.18c0.96,2.65 0.61,5.58 -1.11,8.17l-0.71 1.06c-3.98,14.27 -11.31,26.19 -28.6,21.85 -17.29,-4.34 -19.31,-16.54 -16.33,-31.09l0.87 -8.02c0.41,-0.86 0.93,-1.63 1.55,-2.32l0.29 -4.55 -7.35 -15.64 -2.32 -4.99 -0.12 -0.33c-9.59,-25.8 -23.35,-56.64 -19.33,-84.66 1.37,-9.56 4.72,-18.44 9.91,-26.58 5.15,-8.04 13.02,-14.51 21.94,-17.96z"/>
   <path class="fil1" d="M94.88 173.03l2.43 -0.04 -1.12 17.47 -2.42 0 1.11 -17.43zm27.42 5.78l2.14 1.14 -6.68 15.24 -2.17 -1.12 6.71 -15.26z"/>
   <path class="fil2" d="M119.47 191.76c-2.67,-0.92 -8.42,-2.02 -12.4,-3.01 -5.05,-1.27 -10.78,-2.88 -13.55,-3.3 -1.23,-0.18 -1.52,0.46 -1.52,0.46 0,0 1.03,0.9 0.77,1.93 -2.9,11.39 -4.75,21.21 8.79,24.6 11.92,2.99 15.42,-6.15 18.38,-17.79 0.25,-1.02 1.29,-1.4 1.29,-1.4 0,0 0.5,-0.71 -1.76,-1.49z"/>
   <path class="fil3" d="M151.15 27.46c0,0 -2.3,-3.85 -10.91,-1.87 -12.91,10.27 -40.35,42.39 -32.5,134.8 6.95,2.83 9.16,1.86 9.16,1.86 0,0 58.87,-87.65 34.25,-134.79z"/>
   <path class="fil4" d="M190.14 56.85c0,0 -4.1,-10.62 -19.33,-18.8 8.38,8.42 26.18,56.03 -44.23,126.19 3.86,1.19 7.21,0.94 7.21,0.94 0,0 80.96,-61.19 56.35,-108.33z"/>
   <path class="fil5" d="M200.79 80.44c-1.2,-14.25 -10.65,-23.59 -10.65,-23.59 21.56,47.92 -56.35,108.33 -56.35,108.33 0,0 4.33,1.52 7.63,0.61 32.84,-25.76 60.88,-50.76 59.37,-85.35z"/>
   <path class="fil6" d="M171.22 38.16c-7.86,-9.6 -20.48,-10.81 -20.48,-10.81 24.62,47.14 -35.14,134.79 -35.14,134.79 0,0 7.84,1.97 11.71,2.29 70.41,-70.16 52.29,-117.85 43.91,-126.27z"/>
   <path class="fil7" d="M118.49 24.94c-17.32,0.01 -26.82,8.96 -26.82,8.96 -44.19,29.87 -0.92,120.89 -0.92,120.89 0,0 3.56,1.99 7.53,2.76 -28.47,-94.93 8.81,-129.15 20.21,-132.61z"/>
   <path class="fil8" d="M93.73 32.67c0,0 -11.76,3.15 -19.62,15.12 -19.4,30.64 -4.23,64.57 10.26,103.28 2.47,2.36 6.38,3.72 6.38,3.72 0,0 -41.21,-92.25 2.98,-122.12z"/>
   <path class="fil9" d="M141.98 25.6c0,0 -12.4,-5.5 -23.9,-0.77 -11.4,3.46 -48.27,37.79 -19.8,132.72 3.55,1.55 9.88,2.92 9.88,2.92 0,0 -10.36,-104.99 33.82,-134.87z"/>
   <path class="fil2" d="M136.59 164.91c-5.44,-0.39 -15.56,-1.36 -23.17,-3.27 -9.04,-2.27 -17.73,-5.59 -23.74,-7.99 -3.81,-1.52 -5.78,-3.84 -5.78,-3.84l0.47 1.26 2.17 4.67 8.61 18.31c0,0 9.11,3.59 14.31,4.9 5.88,1.47 14.52,2.33 14.52,2.33l19.22 -16.97c0,0 -2.48,0.9 -6.61,0.6z"/>
   <path class="fil2" d="M88.71 155c2.71,5.46 5.87,13.86 8.77,16.45 1.87,2.63 19.88,6.68 23.55,7.34 0.59,0.1 0.66,-0.24 -0.15,-0.56 -5.84,-2.27 -9.06,-3.82 -16.47,-9.08 -8.19,-5.8 -13.17,-12.69 -15.1,-14.33 -0.66,-0.57 -0.71,-0.51 -0.79,-0.43 -0.06,0.06 -0.04,0.15 0.19,0.61z"/>
   <path class="fil10" d="M154.57 186.82c5.89,0 10.66,4.78 10.66,10.67 0,5.89 -4.77,10.66 -10.66,10.66 -5.9,0 -10.67,-4.77 -10.67,-10.66 0,-5.89 4.77,-10.67 10.67,-10.67zm0 -1.79c6.87,0 12.45,5.58 12.45,12.46 0,6.88 -5.58,12.45 -12.45,12.45 -6.88,0 -12.46,-5.57 -12.46,-12.45 0,-6.88 5.58,-12.46 12.46,-12.46zm-5.03 18.88l0 -12.85 5.47 0c1.37,0 2.37,0.12 3,0.35 0.62,0.23 1.12,0.64 1.49,1.23 0.38,0.59 0.56,1.26 0.56,2.02 0,0.97 -0.28,1.77 -0.84,2.39 -0.57,0.63 -1.41,1.03 -2.54,1.19 0.56,0.33 1.02,0.69 1.39,1.08 0.36,0.39 0.85,1.09 1.47,2.09l1.57 2.5 -3.11 0 -1.86 -2.8c-0.66,-1 -1.12,-1.63 -1.37,-1.89 -0.25,-0.25 -0.51,-0.43 -0.78,-0.53 -0.28,-0.1 -0.72,-0.14 -1.31,-0.14l-0.53 0 0 5.36 -2.61 0zm2.61 -7.41l1.92 0c1.24,0 2.02,-0.05 2.33,-0.16 0.31,-0.1 0.55,-0.29 0.73,-0.54 0.17,-0.26 0.26,-0.58 0.26,-0.97 0,-0.43 -0.12,-0.78 -0.35,-1.05 -0.23,-0.27 -0.55,-0.43 -0.97,-0.5 -0.21,-0.03 -0.85,-0.05 -1.9,-0.05l-2.02 0 0 3.27z"/>
  </g>
 </g>
</svg>
